<svg id="Capa_1" data-name="Capa 1" xmlns="http://www.w3.org/2000/svg" viewBox="0 0 285.83 269.98"><defs><style>.cls-1{fill:none;}.cls-2{fill:#ad46ff;}</style></defs><path class="cls-1" d="M364.46,17.85H336.68c.26,6,.51,11.93.73,17.68-.88.37-1.76.74-2.62,1.13q-.37-10.42-.91-21.46h27.93v-11a267.18,267.18,0,0,1-41.6,3.65q-22.53,0-47.18-1l-.77,10.41q21-1.15,32-1.16,2.4,17,4.3,33.41L306,51q-1.81-15.89-4.11-32.18c-7.13.07-17.05.46-29.51,1.15l-3,.16,1.18-16,2.57.11c16.25.64,32.09,1,47.07,1a265.21,265.21,0,0,0,41.18-3.63l3.07-.49Z" transform="translate(-183.07 -1.1)"/><path class="cls-1" d="M338.66,95.31q0,10.74-.39,22.78c0,.87,0,1.76-.09,2.65-.07,1.78-.14,3.59-.2,5.43s-.16,3.68-.25,5.55c0,.52-.06,1-.08,1.57-.06,1.35-.14,2.71-.2,4.09,0,.08,0,.15,0,.23-.05.88-.09,1.77-.14,2.66-1,17.88-2.52,37.53-4.57,58.84l-2.45,1.44-.11,0a2.2,2.2,0,0,0-.26.15c.14-1.45.28-2.89.41-4.31q.35-3.42.64-6.78,1.47-16.12,2.51-30.84c.07-1,.13-1.94.2-2.91s.13-1.84.18-2.74c.08-1.14.15-2.27.23-3.39s.13-2.24.2-3.36c.19-3,.36-6,.52-9q.3-5.52.52-10.83.09-2.48.18-4.89c0-.39,0-.78,0-1.17.08-2.23.15-4.42.2-6.59,0-1.08.06-2.15.08-3.23s.05-2.11.07-3.18c.08-4.2.12-8.26.12-12.22q0-17.11-.52-36.75l2.64-1.16C338.47,71,338.66,83.63,338.66,95.31Z" transform="translate(-183.07 -1.1)"/><path class="cls-2" d="M330.16,200.6l-.26.16h0A2.2,2.2,0,0,1,330.16,200.6Z" transform="translate(-183.07 -1.1)"/><path class="cls-2" d="M336,95.31c0,4,0,8-.12,12.22,0,1.07,0,2.12-.07,3.18s-.05,2.15-.08,3.23c-.05,2.17-.12,4.36-.2,6.59,0,.39,0,.78,0,1.17q-.09,2.42-.18,4.89-.22,5.31-.52,10.83c-.16,3-.33,6-.52,9-.07,1.12-.13,2.23-.2,3.36s-.15,2.25-.23,3.39c0,.9-.11,1.82-.18,2.74s-.13,1.92-.2,2.91q-1,14.73-2.51,30.84-.3,3.36-.64,6.78c-.13,1.42-.27,2.86-.41,4.31h0q-2.1,1.2-4.26,2.35c-.89.48-1.76.95-2.67,1.41-1.18.63-2.38,1.22-3.58,1.82s-2.44,1.2-3.67,1.78Q316,192,316,170.21q0-16.82-.65-34.24-.31-8.49-.79-17.13-1.29-23.64-3.74-48.36l.25-.13c1.87-1,3.79-2,5.74-3,.82-.42,1.65-.84,2.49-1.25,3.15-1.57,6.39-3.11,9.74-4.65l2.84-1.3c1.2-.53,2.41-1.08,3.63-1.61Q336,78.2,336,95.31Z" transform="translate(-183.07 -1.1)"/><path class="cls-1" d="M450.74,233c0,25.28-13.79,38.09-41,38.09-10.53,0-26.07-2.06-46.17-6.12-19.76-4-35-6-45.31-6-9.61,0-22.52.91-38.4,2.69l-3.22.36,1.24-14.6,33.59-1.55q.5-4.54.84-12.12c.92-.39,1.82-.78,2.72-1.2q-.48,10.71-1.19,15.87l-33.51,1.54-.77,9.05q24.06-2.69,38.7-2.7,15.8,0,45.84,6.08t45.64,6.06q38.31,0,38.32-35.43a50.9,50.9,0,0,0-11.56-32.46Q425,186,412.07,186c-5.13,0-10,2.57-14.45,7.7a25.93,25.93,0,0,0-6.74,17.53q0,12.71,5.88,19.83a18.48,18.48,0,0,0,14.92,7.12c3.72,0,7.55-2.14,11.46-6.44s5.87-8.12,5.87-11.46Q429,207,421.12,207a8.78,8.78,0,0,0-6.55,3.09q7.89,5.78,7.9,10.2,0,7.13-11.56,7.13-7.89,0-11.45-1.84t-3.57-9.14c0-5.13,2.48-9.12,7.42-11.93s10.88-4.24,17.81-4.24q9,0,14.06,8.08t5,20.22q0,9.63-11.64,16.65t-27.39,7q-9.62,0-37.68-2.49t-38.65-2.52q1.26-10.5,2.36-20.55a1.57,1.57,0,0,0,.25-.14c.86-.44,1.73-.9,2.59-1.37q-1,9.54-2.21,19.45c7.5.18,19.3,1,35.89,2.47,18.54,1.66,31.13,2.5,37.45,2.5,10,0,18.72-2.24,26-6.65,7-4.21,10.35-8.92,10.35-14.38,0-7.55-1.55-13.89-4.61-18.82-2.84-4.59-6.71-6.83-11.8-6.83-6.43,0-12,1.31-16.49,3.88-4.1,2.34-6.08,5.49-6.08,9.64,0,2.13.28,5.83,2.12,6.78,1.36.7,4.25,1.54,10.24,1.54,8.91,0,8.91-3.24,8.91-4.47,0-.93-.67-3.56-6.82-8.06l-2.42-1.77,2.06-2.19a11.32,11.32,0,0,1,8.48-3.92c4.81,0,10.55,2.76,10.55,15.94,0,4.06-2.14,8.39-6.57,13.25s-8.93,7.31-13.42,7.31a21.14,21.14,0,0,1-17-8.09c-4.3-5.21-6.48-12.45-6.48-21.52a28.52,28.52,0,0,1,7.4-19.28c5-5.71,10.52-8.61,16.44-8.61,9.41,0,18.34,5.23,26.54,15.55A53.68,53.68,0,0,1,450.74,233Z" transform="translate(-183.07 -1.1)"/><path class="cls-2" d="M448.08,233q0,35.44-38.32,35.43-15.6,0-45.64-6.06t-45.84-6.08q-14.62,0-38.7,2.7l.77-9.05,33.51-1.54q.72-5.16,1.19-15.87l.32-.14,2.06-.92.41-.19q3.24-1.47,6.37-3.07c1-.49,2-1,3-1.52q-1.1,10-2.36,20.55,10.57,0,38.65,2.52t37.68,2.49q15.76,0,27.39-7t11.64-16.65q0-12.13-5-20.22t-14.06-8.08c-6.93,0-12.87,1.4-17.81,4.24s-7.42,6.8-7.42,11.93q0,7.32,3.57,9.14t11.45,1.84q11.56,0,11.56-7.13,0-4.42-7.9-10.2a8.78,8.78,0,0,1,6.55-3.09q7.89,0,7.89,13.29c0,3.34-1.95,7.15-5.87,11.46s-7.74,6.44-11.46,6.44a18.48,18.48,0,0,1-14.92-7.12q-5.88-7.11-5.88-19.83a25.93,25.93,0,0,1,6.74-17.53c4.49-5.13,9.32-7.7,14.45-7.7q12.9,0,24.45,14.53A50.9,50.9,0,0,1,448.08,233Z" transform="translate(-183.07 -1.1)"/><path class="cls-2" d="M436.52,200.53Q425,186,412.07,186c-5.13,0-10,2.57-14.45,7.7a25.93,25.93,0,0,0-6.74,17.53q0,12.71,5.88,19.83a18.48,18.48,0,0,0,14.92,7.12c3.72,0,7.55-2.14,11.46-6.44s5.87-8.12,5.87-11.46Q429,207,421.12,207a8.78,8.78,0,0,0-6.55,3.09q7.89,5.78,7.9,10.2,0,7.13-11.56,7.13-7.89,0-11.45-1.84t-3.57-9.14c0-5.13,2.48-9.12,7.42-11.93s10.88-4.24,17.81-4.24q9,0,14.06,8.08t5,20.22q0,9.63-11.64,16.65t-27.39,7q-9.62,0-37.68-2.49t-38.65-2.52q1.26-10.5,2.36-20.55c-1,.51-2,1-3,1.52q-3.13,1.61-6.37,3.07l-.41.19-2.06.92-.32.14q-.48,10.71-1.19,15.87l-33.51,1.54-.77,9.05q24.06-2.69,38.7-2.7,15.8,0,45.84,6.08t45.64,6.06q38.31,0,38.32-35.43A50.9,50.9,0,0,0,436.52,200.53ZM315.66,211.11q-.2,10.57-.49,18.48,6.36-2.85,12.36-6.08,1.1-10,2-19.49Q322.92,207.73,315.66,211.11ZM335.48,58.56c-1.22.53-2.43,1.08-3.63,1.61L329,61.47c-3.35,1.54-6.59,3.08-9.74,4.65-.84.41-1.67.83-2.49,1.25-1.95,1-3.87,2-5.74,3l-.25.13q2.47,24.72,3.74,48.36.48,8.64.79,17.13.66,17.43.65,34.24,0,21.82-.25,37.91c1.23-.58,2.46-1.17,3.67-1.78s2.4-1.19,3.58-1.82c.91-.46,1.78-.93,2.67-1.41q2.16-1.16,4.26-2.35h0c.14-1.45.28-2.89.41-4.31q.35-3.42.64-6.78,1.47-16.12,2.51-30.84c.07-1,.13-1.94.2-2.91s.13-1.84.18-2.74c.08-1.14.15-2.27.23-3.39s.13-2.24.2-3.36c.19-3,.36-6,.52-9q.3-5.52.52-10.83.09-2.48.18-4.89c0-.39,0-.78,0-1.17.08-2.23.15-4.42.2-6.59,0-1.08.06-2.15.08-3.23s.05-2.11.07-3.18c.08-4.2.12-8.26.12-12.22Q336,78.2,335.48,58.56Zm-.59-19.07a260.67,260.67,0,0,0-26,12.94c.59,5.12,1.13,10.18,1.64,15.21q11.48-6.11,24.89-12C335.27,50.41,335.09,45,334.89,39.49Z" transform="translate(-183.07 -1.1)"/><path class="cls-2" d="M361.81,15.2H333.88q.53,11,.91,21.46c-1.18.5-2.37,1-3.52,1.54s-2.08.92-3.1,1.4l-2.41,1.11c-.79.36-1.59.75-2.37,1.13-.95.44-1.88.89-2.8,1.36l-2.72,1.37c-.53.26-1.08.54-1.61.82l-1.57.82-2.61,1.4c-1.2.65-2.37,1.3-3.54,2q-1.89-16.45-4.3-33.41-11,0-32,1.16L273,6.9q24.66,1,47.18,1a267.18,267.18,0,0,0,41.6-3.65Z" transform="translate(-183.07 -1.1)"/><path class="cls-1" d="M316,170.21q0,21.82-.25,37.91c-.88.43-1.77.84-2.67,1.25.17-11,.26-24.07.26-39.16q0-15.57-.58-31.78c0-.89-.06-1.78-.1-2.67-.19-5.66-.46-11.38-.78-17.14-.05-.89-.09-1.78-.15-2.67q-1.24-21.6-3.45-44.1c.82-.46,1.66-.9,2.54-1.37q2.47,24.72,3.74,48.36.48,8.64.79,17.13Q316,153.4,316,170.21Z" transform="translate(-183.07 -1.1)"/><text x="-183.07" y="-1.1"/><path class="cls-2" d="M466.22,30q.78,16.53-27,40.25Q412.42,93.19,394.79,94c-9.43.45-14.33-2.58-14.63-9.09q-.41-8.18,15.3-20Q410.39,53.83,419,53.42c2-.1,3,.49,3.09,1.75l-15.79,9.58q-15.81,9.61-16.23,13.72a3,3,0,0,0,2.73,1q11.36-.56,36.68-16.9,26.85-17.38,26.35-27.78-.44-9.12-22.5-8.08Q408.17,27.91,363,44.61q-13.2,4.88-25,9.92c0-1.31-.08-2.64-.12-4-.08-2.66-.15-5.36-.26-8.08,0-1.37-.09-2.74-.15-4.12q15.14-6.43,32.75-12.11,39.76-12.8,64-13.95Q465.31,10.8,466.22,30Z" transform="translate(-183.07 -1.1)"/><path class="cls-1" d="M441,72.3c-18.53,15.82-33.6,23.79-46.08,24.39-.65,0-1.29,0-1.91,0-13,0-15.3-7.3-15.51-11.66-.3-6.45,5.05-13.72,16.36-22.23,10.5-7.83,18.69-11.77,25.07-12.08h.53c3.77,0,5.23,2.22,5.33,4.29l.08,1.58L407.72,67c-7.92,4.81-11.65,7.84-13.41,9.6,7.19-1,18.54-6.48,33.77-16.31,22.24-14.4,25.29-22.11,25.15-25.41-.23-4.68-8.56-5.67-15.53-5.67-1.31,0-2.72,0-4.2.11-16.45.78-39.87,6.76-69.57,17.74q-13.64,5-25.81,10.31l-2.64,1.16c-1.22.53-2.43,1.08-3.63,1.61L329,61.47c-3.35,1.54-6.59,3.08-9.74,4.65-.84.41-1.67.83-2.49,1.25-1.95,1-3.87,2-5.74,3l-.25.13c-.88.47-1.72.91-2.54,1.37C279.3,87.59,273.46,98,273.75,104c.22,4.87,8.69,8.7,23.83,10.77L311.7,116c.06.89.1,1.78.15,2.67l-14.57-1.17q-25.72-3.51-26.19-13.29Q270.37,89.22,308,69c.59-.33,1.21-.65,1.83-1l.72-.37q11.48-6.11,24.89-12L338,54.53q11.77-5,25-9.92,45.18-16.71,70.37-17.92,22.06-1,22.5,8.08.5,10.41-26.35,27.78Q404.2,78.9,392.84,79.45a3,3,0,0,1-2.73-1q.42-4.11,16.23-13.72l15.79-9.58c-.06-1.26-1.09-1.85-3.09-1.75q-8.64.42-23.58,11.55-15.69,11.79-15.3,20c.3,6.51,5.2,9.54,14.63,9.09q17.64-.84,44.48-23.75Q467,46.57,466.22,30q-.92-19.22-31.93-17.73-24.24,1.15-64,14-17.61,5.68-32.75,12.11c-.89.37-1.75.74-2.62,1.13a260.67,260.67,0,0,0-26,12.94c-.85.48-1.68,1-2.51,1.47-3.63,2.12-7.08,4.3-10.38,6.53q-35.3,23.81-34.14,48.22.92,19.23,32.3,25.3,3.19.59,18.49,1.81c0,.89.07,1.78.1,2.67-10.51-.84-16.83-1.45-19.07-1.86-22.21-4.3-33.8-13.65-34.48-27.79-.82-17.19,11.06-34.2,35.31-50.55Q300,54.54,306,51l2.51-1.44c1.17-.65,2.34-1.3,3.54-2l2.61-1.4,1.57-.82c.53-.28,1.08-.56,1.61-.82l2.72-1.37c.92-.47,1.85-.92,2.8-1.36l2.37-1.13,2.41-1.11c1-.48,2.05-1,3.1-1.4s2.34-1,3.52-1.54c.86-.39,1.74-.76,2.62-1.13q14.88-6.29,32-11.81c26.64-8.56,48.41-13.29,64.73-14.08,1.51-.08,3-.1,4.42-.1,24.24,0,29.85,11.07,30.3,20.36C469.45,41.9,460.32,55.77,441,72.3Z" transform="translate(-183.07 -1.1)"/><path class="cls-2" d="M338,54.53l-2.64,1.15q-13.41,5.85-24.89,12l-.72.37c-.62.33-1.24.65-1.83,1-.48-5-1-10-1.6-15.09.83-.5,1.66-1,2.51-1.47a260.67,260.67,0,0,1,26-12.94c.87-.39,1.73-.76,2.62-1.13.06,1.38.11,2.75.15,4.12.11,2.72.18,5.42.26,8.08C338,51.89,338,53.22,338,54.53Z" transform="translate(-183.07 -1.1)"/><path class="cls-2" d="M312.63,135.76q-15.3-1.22-18.49-1.81-31.38-6.07-32.3-25.3Q260.67,84.23,296,60.43c3.3-2.23,6.75-4.41,10.38-6.53C306.93,59,307.48,64,308,69q-37.57,20.24-36.87,35.17.46,9.77,26.19,13.29l14.57,1.17C312.17,124.38,312.44,130.1,312.63,135.76Z" transform="translate(-183.07 -1.1)"/><path class="cls-1" d="M371.71,194.26A177.46,177.46,0,0,1,330,225.17c-.86.47-1.73.93-2.59,1.37a1.57,1.57,0,0,1-.25.14c.12-1.07.24-2.12.34-3.17a174.34,174.34,0,0,0,42.3-31.12q23.79-23.88,23-40.75-.45-9.6-8-18.9-6.85-8.19-36.67-11.19l-10-.81c0-.89.06-1.78.09-2.65l10.09.81C369.18,121,381.77,125,386.84,131c5.4,6.63,8.3,13.52,8.63,20.47C396.05,163.64,388.28,177.62,371.71,194.26Z" transform="translate(-183.07 -1.1)"/><path class="cls-1" d="M383.6,150.37q.47,9.76-21.57,30.4A165.5,165.5,0,0,1,329.57,204q-6.65,3.71-13.91,7.09c0-1,0-2,.06-3,1.23-.58,2.46-1.17,3.67-1.78s2.4-1.19,3.58-1.82c.91-.46,1.78-.93,2.67-1.41q2.16-1.16,4.26-2.35l.26-.16.11,0,2.45-1.44a157.49,157.49,0,0,0,27.49-20.28c17.48-16.36,20.92-24.44,20.73-28.33-.1-2.18-3.15-7.44-29.17-9.24l-14.48-1c0-.89.09-1.78.14-2.66l14.52,1Q383.14,140.75,383.6,150.37Z" transform="translate(-183.07 -1.1)"/><path class="cls-2" d="M330.16,200.6l-.26.16h0A2.2,2.2,0,0,1,330.16,200.6Z" transform="translate(-183.07 -1.1)"/><path class="cls-1" d="M263.1,175c-.12-2.64-2.34-3.85-6.63-3.63q-20.18,1-44.09,15.2-27.49,16.16-26.62,34.09,1.43,30.08,51.5,27.68a214.16,214.16,0,0,0,71.36-15.88c2.22-.92,4.4-1.86,6.55-2.84,0,1-.08,2-.12,2.93-.9.42-1.8.81-2.72,1.2s-1.8.78-2.7,1.16A217.46,217.46,0,0,1,237.39,251c-2.49.12-4.93.17-7.24.17-30.25,0-46.08-10.22-47.05-30.38-.61-13,8.78-25.26,27.93-36.52,16.24-9.66,31.5-14.9,45.31-15.56l1,0c7.31,0,8.29,4.32,8.38,6.18.24,5-6.39,6.26-8.57,6.67a142.81,142.81,0,0,0-35.84,12.56c-15.33,7.6-22.89,15.49-22.52,23.42.4,8.29,10.37,12.49,29.61,12.49,2.29,0,4.74-.07,7.27-.18,20.68-1,43-6.25,66.33-15.66,3.78-1.53,7.44-3.11,11-4.76.9-.41,1.79-.82,2.67-1.25,0,1,0,2-.06,3Q309.57,214,303,216.6q-35.58,14.34-67.21,15.84Q197,234.3,196.19,217.61q-.66-13.7,23.95-25.93a145.38,145.38,0,0,1,36.54-12.78Q263.25,177.64,263.1,175Z" transform="translate(-183.07 -1.1)"/><path class="cls-1" d="M327.53,223.51c-.1,1.05-.22,2.1-.34,3.17-1,.51-2,1-3,1.52q-3.13,1.61-6.37,3.07l-.41.19-2.06.92-.32.14c0-.94.08-1.92.12-2.93Q321.53,226.74,327.53,223.51Z" transform="translate(-183.07 -1.1)"/><path class="cls-2" d="M369.83,192.39a174.34,174.34,0,0,1-42.3,31.12q-6,3.24-12.36,6.08c-2.15,1-4.33,1.92-6.55,2.84a214.16,214.16,0,0,1-71.36,15.88q-50.07,2.4-51.5-27.68-.85-17.94,26.62-34.09,23.94-14.25,44.09-15.2c4.29-.22,6.51,1,6.63,3.63q.15,2.67-6.42,3.93a145.38,145.38,0,0,0-36.54,12.78q-24.6,12.24-23.95,25.93.8,16.69,39.64,14.83,31.62-1.51,67.21-15.84,6.54-2.65,12.62-5.49,7.26-3.39,13.91-7.09A165.5,165.5,0,0,0,362,180.77q22-20.62,21.57-30.4-.45-9.62-31.65-11.75l-14.52-1c0-.08,0-.15,0-.23.06-1.38.14-2.74.2-4.09,0-.53.05-1,.08-1.57.09-1.87.17-3.72.25-5.55s.13-3.65.2-5.43l10,.81q29.81,3,36.67,11.19,7.53,9.3,8,18.9Q393.64,168.49,369.83,192.39Z" transform="translate(-183.07 -1.1)"/><path class="cls-2" d="M434.29,12.3q-24.24,1.15-64,14-17.61,5.68-32.75,12.11c-.89.37-1.75.74-2.62,1.13a260.67,260.67,0,0,0-26,12.94c-.85.48-1.68,1-2.51,1.47-3.63,2.12-7.08,4.3-10.38,6.53q-35.3,23.81-34.14,48.22.92,19.23,32.3,25.3,3.19.59,18.49,1.81c-.19-5.66-.46-11.38-.78-17.14l-14.57-1.17q-25.72-3.51-26.19-13.29Q270.37,89.22,308,69c.59-.33,1.21-.65,1.83-1l.72-.37q11.48-6.11,24.89-12L338,54.53q11.77-5,25-9.92,45.18-16.71,70.37-17.92,22.06-1,22.5,8.08.5,10.41-26.35,27.78Q404.2,78.9,392.84,79.45a3,3,0,0,1-2.73-1q.42-4.11,16.23-13.72l15.79-9.58c-.06-1.26-1.09-1.85-3.09-1.75q-8.64.42-23.58,11.55-15.69,11.79-15.3,20c.3,6.51,5.2,9.54,14.63,9.09q17.64-.84,44.48-23.75Q467,46.57,466.22,30,465.31,10.81,434.29,12.3ZM314.53,118.84q.48,8.64.79,17.13,8.21.65,19.47,1.45.3-5.52.52-10.83.09-2.48.18-4.89c0-.39,0-.78,0-1.17Zm78.28,32.8q-.45-9.6-8-18.9-6.85-8.19-36.67-11.19l-10-.81c-.07,1.78-.14,3.59-.2,5.43s-.16,3.68-.25,5.55c0,.52-.06,1-.08,1.57-.06,1.35-.14,2.71-.2,4.09,0,.08,0,.15,0,.23l14.52,1q31.19,2.13,31.65,11.75T362,180.77A165.5,165.5,0,0,1,329.57,204q-6.65,3.71-13.91,7.09Q309.57,214,303,216.6q-35.58,14.34-67.21,15.84Q197,234.3,196.19,217.61q-.66-13.7,23.95-25.93a145.38,145.38,0,0,1,36.54-12.78q6.57-1.26,6.42-3.93c-.12-2.64-2.34-3.85-6.63-3.63q-20.18,1-44.09,15.2-27.49,16.16-26.62,34.09,1.43,30.08,51.5,27.68a214.16,214.16,0,0,0,71.36-15.88c2.22-.92,4.4-1.86,6.55-2.84q6.36-2.85,12.36-6.08a174.34,174.34,0,0,0,42.3-31.12Q393.62,168.51,392.81,151.64Z" transform="translate(-183.07 -1.1)"/></svg>